#!OML:ASF F:\VICON\USERDATA\INSTALL\rory3\rory3.ASF
:FULLY-SPECIFIED
:DEGREES
592
root 20.2007 17.7541 11.6415 -1.1563 12.2243 6.08864
lowerback 12.8332 0.524186 -3.67537
upperback 1.7747 0.254498 1.03731
thorax -5.34917 0.211226 3.12618
lowerneck -20.4775 5.523 -7.42019
upperneck 36.9422 11.1457 1.32011
head 16.1584 3.81924 3.99698
rclavicle 1.09332e-015 -1.74931e-014
rhumerus -42.6387 -28.01 -65.6328
rradius 33.3162
rwrist 5.84395
rhand -16.959 10.5099
rfingers 7.12502
rthumb 9.2749 -19.2661
lclavicle 1.09332e-015 -1.74931e-014
lhumerus -28.0409 8.91217 77.7838
lradius 43.2847
lwrist 2.91013
lhand -21.3561 26.3128
lfingers 7.12502
lthumb 5.03056 56.2331
rfemur -12.8395 4.26122 10.3713
rtibia 45.9786
rfoot -20.065 -3.68313
rtoes -3.03459
lfemur -6.42509 -6.30426 -21.7341
ltibia 20.1945
lfoot -10.3876 -11.9959
ltoes -10.0264
593
root 20.2413 17.7458 11.6412 -1.09988 12.3727 6.18966
lowerback 12.9079 0.555115 -3.92335
upperback 1.61431 0.250221 0.950732
thorax -5.56053 0.220331 3.17688
lowerneck -20.2015 5.51776 -7.35199
upperneck 37.024 11.041 1.44726
head 16.1307 3.80836 4.01063
rclavicle 1.47101e-014 -1.66979e-014
rhumerus -43.1424 -27.8729 -65.7912
rradius 33.4677
rwrist 5.48165
rhand -17.0842 10.6184
rfingers 7.12502
rthumb 9.15413 -19.1629
lclavicle 1.47101e-014 -1.66979e-014
lhumerus -28.2266 8.82009 77.501
lradius 43.4859
lwrist 3.22131
lhand -21.0369 26.7535
lfingers 7.12502
lthumb 5.33874 56.6663
rfemur -13.1852 3.61309 11.1338
rtibia 46.1866
rfoot -20.8151 -2.69828
rtoes -3.90138
lfemur -6.63238 -6.34003 -21.9937
ltibia 20.5612
lfoot -10.6003 -12.044
ltoes -9.99441
594
root 20.2845 17.7406 11.6372 -1.01978 12.5202 6.23592
lowerback 12.9387 0.52847 -4.09172
upperback 1.52031 0.185803 0.910759
thorax -5.67219 0.19596 3.2419
lowerneck -20.1485 5.52876 -7.38598
upperneck 37.0816 11.0429 1.5216
head 16.1369 3.81395 4.048
rclavicle -1.09332e-015 1.27222e-014
rhumerus -43.3312 -27.7887 -66.0046
rradius 33.5237
rwrist 5.2656
rhand -17.0108 10.6643
rfingers 7.12502
rthumb 9.22493 -19.1139
lclavicle -1.09332e-015 1.27222e-014
lhumerus -28.2611 8.89802 77.2785
lradius 43.6393
lwrist 3.52059
lhand -20.8343 27.36
lfingers 7.12502
lthumb 5.53433 57.2678
rfemur -13.5929 2.79371 11.9257
rtibia 46.3346
rfoot -21.5171 -1.34392
rtoes -4.55491
lfemur -6.88981 -6.38745 -22.2001
ltibia 20.9627
lfoot -10.7936 -12.0639
ltoes -9.85565
595
root 20.3298 17.7367 11.6322 -0.938038 12.7056 6.26979
lowerback 12.8293 0.493162 -4.17842
upperback 1.54925 0.129823 0.872621
thorax -5.57599 0.167345 3.25993
lowerneck -20.0554 5.56834 -7.3162
upperneck 36.9111 11.0795 1.43883
head 16.0388 3.84016 3.9925
rclavicle 8.34896e-015 -2.38542e-015
rhumerus -43.3057 -27.9607 -66.1816
rradius 33.493
rwrist 5.27091
rhand -16.9277 10.6594
rfingers 7.12502
rthumb 9.30509 -19.1153
lclavicle 8.34896e-015 -2.38542e-015
lhumerus -28.1995 9.0274 77.1185
lradius 43.7688
lwrist 3.64397
lhand -21.0361 27.3485
lfingers 7.12502
lthumb 5.33952 57.2612
rfemur -13.9435 1.81311 12.7297
rtibia 46.407
rfoot -22.2154 0.248659
rtoes -5.92247
lfemur -7.19308 -6.36512 -22.4047
ltibia 21.4433
lfoot -11.0419 -12.2028
ltoes -9.73818
596
root 20.3719 17.7244 11.6295 -0.915677 12.8286 6.26056
lowerback 12.7885 0.484522 -4.25606
upperback 1.51666 0.107062 0.845787
thorax -5.58594 0.15836 3.27947
lowerneck -19.8298 5.5969 -7.29751
upperneck 36.8605 11.0744 1.46846
head 15.9575 3.85569 3.98486
rclavicle -2.78299e-015 -3.18055e-015
rhumerus -43.4493 -28.0316 -66.2895
rradius 33.4184
rwrist 5.38624
rhand -17.0045 10.776
rfingers 7.12502
rthumb 9.231 -19.002
lclavicle -2.78299e-015 -3.18055e-015
lhumerus -28.2253 9.12964 76.9134
lradius 43.694
lwrist 3.80719
lhand -21.1393 26.7503
lfingers 7.12502
lthumb 5.23988 56.6656
rfemur -14.1585 1.05508 13.6203
rtibia 46.3705
rfoot -22.8476 1.93368
rtoes -7.08978
lfemur -7.49015 -6.28989 -22.5356
ltibia 22.0065
lfoot -11.3158 -12.4084
ltoes -9.25482
597
root 20.4123 17.7064 11.6311 -0.915538 12.8214 6.20809
lowerback 12.7153 0.510021 -4.3228
upperback 1.46571 0.133286 0.83896
thorax -5.60176 0.173814 3.30539
lowerneck -19.6805 5.58287 -7.43991
upperneck 36.9329 11.0056 1.70366
head 15.9284 3.84419 4.08968
rclavicle 3.22031e-014 1.35174e-014
rhumerus -43.6539 -27.925 -66.4358
rradius 33.3824
rwrist 5.42784
rhand -17.086 11.0167
rfingers 7.12502
rthumb 9.15239 -18.7647
lclavicle 3.22031e-014 1.35174e-014
lhumerus -28.2308 9.25435 76.7492
lradius 43.5705
lwrist 4.05207
lhand -21.2298 26.5811
lfingers 7.12502
lthumb 5.15249 56.4985
rfemur -14.3138 0.500644 14.5628
rtibia 46.22
rfoot -23.3886 3.66937
rtoes -7.36152
lfemur -7.79865 -6.13627 -22.6095
ltibia 22.6756
lfoot -11.737 -12.4408
ltoes -9.5945
